REM DIRINDEX 1\2\4,1\2\5,1\2\6,1\3\7,1\3\8,1\3\9,1\3\10
REM DIRNAME folder01,folder02,folder03,folder04,folder05,folder06,folder07,folder08,folder09,folder10
TITLE ""
FILE "b_109.mp3" MP3
  TRACK 01 AUDIO
    TITLE "0:"
    INDEX 01 00:00:00
  TRACK 02 AUDIO
    TITLE "7:cjc057_06947"
    INDEX 01 00:00:09
  TRACK 03 AUDIO
    TITLE "0:"
    INDEX 01 00:01:15
  TRACK 04 AUDIO
    TITLE "8:cjc057_06948"
    INDEX 01 00:01:48
  TRACK 05 AUDIO
    TITLE "0:"
    INDEX 01 00:02:45
  TRACK 06 AUDIO
    TITLE "7:cjc057_06949"
    INDEX 01 00:03:51
  TRACK 07 AUDIO
    TITLE "0:"
    INDEX 01 00:04:66
  TRACK 08 AUDIO
    TITLE "8:cjc057_06950"
    INDEX 01 00:05:22
  TRACK 09 AUDIO
    TITLE "0:"
    INDEX 01 00:07:60
  TRACK 10 AUDIO
    TITLE "7:cjc057_06951"
    INDEX 01 00:08:62
  TRACK 11 AUDIO
    TITLE "0:"
    INDEX 01 00:09:73
  TRACK 12 AUDIO
    TITLE "8:cjc057_06952"
    INDEX 01 00:10:29
  TRACK 13 AUDIO
    TITLE "0:"
    INDEX 01 00:12:32
  TRACK 14 AUDIO
    TITLE "7:cjc057_06953"
    INDEX 01 00:13:39
  TRACK 15 AUDIO
    TITLE "0:"
    INDEX 01 00:14:43
  TRACK 16 AUDIO
    TITLE "8:cjc057_06954"
    INDEX 01 00:15:01
  TRACK 17 AUDIO
    TITLE "0:"
    INDEX 01 00:18:56
  TRACK 18 AUDIO
    TITLE "7:cjc057_06955"
    INDEX 01 00:19:62
  TRACK 19 AUDIO
    TITLE "0:"
    INDEX 01 00:20:67
  TRACK 20 AUDIO
    TITLE "8:cjc057_06956"
    INDEX 01 00:21:23
  TRACK 21 AUDIO
    TITLE "0:"
    INDEX 01 00:24:25
  TRACK 22 AUDIO
    TITLE "7:cjc057_06957"
    INDEX 01 00:25:33
  TRACK 23 AUDIO
    TITLE "0:"
    INDEX 01 00:26:46
  TRACK 24 AUDIO
    TITLE "8:cjc057_06958"
    INDEX 01 00:27:02
  TRACK 25 AUDIO
    TITLE "0:"
    INDEX 01 00:29:15
  TRACK 26 AUDIO
    TITLE "7:cjc057_06959"
    INDEX 01 00:30:22
  TRACK 27 AUDIO
    TITLE "0:"
    INDEX 01 00:31:35
  TRACK 28 AUDIO
    TITLE "8:cjc057_06960"
    INDEX 01 00:31:67
  TRACK 29 AUDIO
    TITLE "0:"
    INDEX 01 00:35:17
  TRACK 30 AUDIO
    TITLE "7:cjc057_06961"
    INDEX 01 00:36:23
  TRACK 31 AUDIO
    TITLE "0:"
    INDEX 01 00:37:28
  TRACK 32 AUDIO
    TITLE "8:cjc057_06962"
    INDEX 01 00:37:59
  TRACK 33 AUDIO
    TITLE "0:"
    INDEX 01 00:40:68
  TRACK 34 AUDIO
    TITLE "7:cjc057_06963"
    INDEX 01 00:42:00
  TRACK 35 AUDIO
    TITLE "0:"
    INDEX 01 00:43:21
  TRACK 36 AUDIO
    TITLE "8:cjc057_06964"
    INDEX 01 00:43:52
  TRACK 37 AUDIO
    TITLE "0:"
    INDEX 01 00:46:72
  TRACK 38 AUDIO
    TITLE "7:cjc057_06965"
    INDEX 01 00:48:04
  TRACK 39 AUDIO
    TITLE "0:"
    INDEX 01 00:49:37
  TRACK 40 AUDIO
    TITLE "8:cjc057_06966"
    INDEX 01 00:49:69
  TRACK 41 AUDIO
    TITLE "0:"
    INDEX 01 00:51:20
  TRACK 42 AUDIO
    TITLE "7:cjc057_06967"
    INDEX 01 00:52:26
  TRACK 43 AUDIO
    TITLE "0:"
    INDEX 01 00:53:37
  TRACK 44 AUDIO
    TITLE "8:cjc057_06968"
    INDEX 01 00:53:68
  TRACK 45 AUDIO
    TITLE "0:"
    INDEX 01 00:57:62
  TRACK 46 AUDIO
    TITLE "7:cjc057_06969"
    INDEX 01 00:58:69
  TRACK 47 AUDIO
    TITLE "0:"
    INDEX 01 01:00:04
  TRACK 48 AUDIO
    TITLE "8:cjc057_06970"
    INDEX 01 01:00:37
  TRACK 49 AUDIO
    TITLE "0:"
    INDEX 01 01:02:26
  TRACK 50 AUDIO
    TITLE "7:cjc057_06971"
    INDEX 01 01:03:33
  TRACK 51 AUDIO
    TITLE "0:"
    INDEX 01 01:04:66
  TRACK 52 AUDIO
    TITLE "8:cjc057_06972"
    INDEX 01 01:05:22
  TRACK 53 AUDIO
    TITLE "0:"
    INDEX 01 01:06:51
  TRACK 54 AUDIO
    TITLE "7:cjc057_06973"
    INDEX 01 01:07:53
  TRACK 55 AUDIO
    TITLE "0:"
    INDEX 01 01:08:70
  TRACK 56 AUDIO
    TITLE "8:cjc057_06974"
    INDEX 01 01:09:28
  TRACK 57 AUDIO
    TITLE "0:"
    INDEX 01 01:11:47
  TRACK 58 AUDIO
    TITLE "7:cjc057_06975"
    INDEX 01 01:12:56
  TRACK 59 AUDIO
    TITLE "0:"
    INDEX 01 01:14:12
  TRACK 60 AUDIO
    TITLE "8:cjc057_06976"
    INDEX 01 01:14:43
  TRACK 61 AUDIO
    TITLE "0:"
    INDEX 01 01:17:67
  TRACK 62 AUDIO
    TITLE "7:cjc057_06977"
    INDEX 01 01:19:01
  TRACK 63 AUDIO
    TITLE "0:"
    INDEX 01 01:20:10
  TRACK 64 AUDIO
    TITLE "8:cjc057_06978"
    INDEX 01 01:20:42
  TRACK 65 AUDIO
    TITLE "0:"
    INDEX 01 01:23:54
  TRACK 66 AUDIO
    TITLE "7:cjc057_06979"
    INDEX 01 01:24:61
  TRACK 67 AUDIO
    TITLE "0:"
    INDEX 01 01:26:11
  TRACK 68 AUDIO
    TITLE "8:cjc057_06980"
    INDEX 01 01:26:42
  TRACK 69 AUDIO
    TITLE "0:"
    INDEX 01 01:28:51
  TRACK 70 AUDIO
    TITLE "7:cjc057_06981"
    INDEX 01 01:29:56
  TRACK 71 AUDIO
    TITLE "0:"
    INDEX 01 01:31:10
  TRACK 72 AUDIO
    TITLE "8:cjc057_06982"
    INDEX 01 01:31:41
  TRACK 73 AUDIO
    TITLE "0:"
    INDEX 01 01:34:61
  TRACK 74 AUDIO
    TITLE "7:cjc057_06983"
    INDEX 01 01:35:69
  TRACK 75 AUDIO
    TITLE "0:"
    INDEX 01 01:37:13
  TRACK 76 AUDIO
    TITLE "8:cjc057_06984"
    INDEX 01 01:37:44
  TRACK 77 AUDIO
    TITLE "0:"
    INDEX 01 01:39:47
  TRACK 78 AUDIO
    TITLE "7:cjc057_06985"
    INDEX 01 01:40:54
  TRACK 79 AUDIO
    TITLE "0:"
    INDEX 01 01:41:67
  TRACK 80 AUDIO
    TITLE "8:cjc057_06986"
    INDEX 01 01:42:24
  TRACK 81 AUDIO
    TITLE "0:"
    INDEX 01 01:44:07
  TRACK 82 AUDIO
    TITLE "7:cjc057_06987"
    INDEX 01 01:45:12
  TRACK 83 AUDIO
    TITLE "0:"
    INDEX 01 01:46:25
  TRACK 84 AUDIO
    TITLE "8:cjc057_06988"
    INDEX 01 01:46:57
  TRACK 85 AUDIO
    TITLE "0:"
    INDEX 01 01:48:63
  TRACK 86 AUDIO
    TITLE "7:cjc057_06989"
    INDEX 01 01:49:71
  TRACK 87 AUDIO
    TITLE "0:"
    INDEX 01 01:51:09
  TRACK 88 AUDIO
    TITLE "8:cjc057_06990"
    INDEX 01 01:51:40
  TRACK 89 AUDIO
    TITLE "0:"
    INDEX 01 01:54:33
  TRACK 90 AUDIO
    TITLE "7:cjc057_06991"
    INDEX 01 01:55:40
  TRACK 91 AUDIO
    TITLE "0:"
    INDEX 01 01:56:49
  TRACK 92 AUDIO
    TITLE "8:cjc057_06992"
    INDEX 01 01:57:06
  TRACK 93 AUDIO
    TITLE "0:"
    INDEX 01 02:00:22
  TRACK 94 AUDIO
    TITLE "7:cjc057_06993"
    INDEX 01 02:01:25
  TRACK 95 AUDIO
    TITLE "0:"
    INDEX 01 02:02:46
  TRACK 96 AUDIO
    TITLE "8:cjc057_06994"
    INDEX 01 02:03:04
  TRACK 97 AUDIO
    TITLE "0:"
    INDEX 01 02:05:19
  TRACK 98 AUDIO
    TITLE "7:cjc057_06995"
    INDEX 01 02:06:26
  TRACK 99 AUDIO
    TITLE "0:"
    INDEX 01 02:07:41
  TRACK 100 AUDIO
    TITLE "8:cjc057_06996"
    INDEX 01 02:07:73
  TRACK 101 AUDIO
    TITLE "0:"
    INDEX 01 02:08:72
  TRACK 102 AUDIO
    TITLE "7:cjc057_06997"
    INDEX 01 02:10:02
  TRACK 103 AUDIO
    TITLE "0:"
    INDEX 01 02:11:25
  TRACK 104 AUDIO
    TITLE "8:cjc057_06998"
    INDEX 01 02:11:57
  TRACK 105 AUDIO
    TITLE "0:"
    INDEX 01 02:14:59
  TRACK 106 AUDIO
    TITLE "7:cjc057_06999"
    INDEX 01 02:15:66
  TRACK 107 AUDIO
    TITLE "0:"
    INDEX 01 02:17:12
  TRACK 108 AUDIO
    TITLE "8:cjc057_07000"
    INDEX 01 02:17:44
  TRACK 109 AUDIO
    TITLE "0:"
    INDEX 01 02:19:50
  TRACK 110 AUDIO
    TITLE "7:cjc057_07001"
    INDEX 01 02:20:56
  TRACK 111 AUDIO
    TITLE "0:"
    INDEX 01 02:21:63
  TRACK 112 AUDIO
    TITLE "8:cjc057_07002"
    INDEX 01 02:22:21
  TRACK 113 AUDIO
    TITLE "0:"
    INDEX 01 02:25:25
